<svg width="166" height="30" viewBox="0 0 166 30" fill="none" xmlns="http://www.w3.org/2000/svg">
<circle cx="19" cy="15" r="13.5" stroke="#DE3450" stroke-width="3"/>
<rect y="5" width="8" height="3" fill="#DE3450"/>
<rect x="5" width="13" height="3" fill="#DE3450"/>
<rect y="27" width="19" height="3" fill="#DE3450"/>
<rect x="3" y="23" width="7" height="3" fill="#DE3450"/>
<circle cx="19" cy="15" r="8" stroke="#DE3450" stroke-width="2"/>
<circle cx="19" cy="15" r="3" stroke="#DE3450" stroke-width="2"/>
<line x1="13.9393" y1="20.9393" x2="17.9393" y2="16.9393" stroke="#DE3450" stroke-width="3"/>
<line x1="25.063" y1="21.1713" x2="20.063" y2="17.1713" stroke="#DE3450" stroke-width="3"/>
<line x1="26.8287" y1="12.4095" x2="21.513" y2="14.3443" stroke="#DE3450" stroke-width="3"/>
<line x1="15.9049" y1="14.1874" x2="10.5325" y2="12.4253" stroke="#DE3450" stroke-width="3"/>
<line x1="19" y1="12" x2="19" y2="8" stroke="#DE3450" stroke-width="2"/>
<path d="M46.918 26.2734C45.8607 26.2734 44.8991 26.0866 44.0332 25.7129C43.1764 25.3301 42.4928 24.7285 41.9824 23.9082C41.4811 23.0788 41.2305 21.9941 41.2305 20.6543C41.2305 19.5514 41.3444 18.4941 41.5723 17.4824C41.8001 16.4707 42.1374 15.5365 42.584 14.6797C43.0306 13.8229 43.582 13.0801 44.2383 12.4512C44.8945 11.8132 45.6465 11.3164 46.4941 10.9609C47.3418 10.6055 48.2852 10.4277 49.3242 10.4277C50.2357 10.4277 51.0514 10.5143 51.7715 10.6875C52.5007 10.8607 53.1797 11.1022 53.8086 11.4121L52.5508 14.543C52.0586 14.3333 51.5755 14.151 51.1016 13.9961C50.6276 13.8411 50.0898 13.7637 49.4883 13.7637C48.8411 13.7637 48.2624 13.9505 47.752 14.3242C47.2507 14.6979 46.8223 15.1992 46.4668 15.8281C46.1204 16.457 45.8561 17.1634 45.6738 17.9473C45.4915 18.722 45.4004 19.5104 45.4004 20.3125C45.4004 20.8867 45.4915 21.3698 45.6738 21.7617C45.8652 22.1536 46.1341 22.4499 46.4805 22.6504C46.8359 22.8509 47.2598 22.9512 47.752 22.9512C48.4447 22.9512 49.0872 22.8464 49.6797 22.6367C50.2721 22.418 50.8828 22.1491 51.5117 21.8301V25.1934C50.8737 25.5306 50.1855 25.7949 49.4473 25.9863C48.709 26.1777 47.8659 26.2734 46.918 26.2734ZM59.0859 26.2734C58.3477 26.2734 57.6504 26.0911 56.9941 25.7266C56.3379 25.362 55.8001 24.7741 55.3809 23.9629C54.9707 23.1517 54.7656 22.0762 54.7656 20.7363C54.7656 19.7337 54.8704 18.7402 55.0801 17.7559C55.2988 16.7715 55.6087 15.8418 56.0098 14.9668C56.4199 14.0827 56.9121 13.3034 57.4863 12.6289C58.0697 11.9453 58.7259 11.4076 59.4551 11.0156C60.1934 10.6237 60.9909 10.4277 61.8477 10.4277C62.4948 10.4277 63.0599 10.5234 63.543 10.7148C64.026 10.8971 64.4408 11.1569 64.7871 11.4941C65.1335 11.8314 65.416 12.2233 65.6348 12.6699H65.7441L66.5234 10.7148H69.6953L66.4414 26H63.3652L63.5566 24.0176H63.4473C63.0827 24.4642 62.6862 24.8561 62.2578 25.1934C61.8294 25.5306 61.3555 25.7949 60.8359 25.9863C60.3164 26.1777 59.7331 26.2734 59.0859 26.2734ZM60.6992 22.9512C61.2643 22.9512 61.7884 22.7324 62.2715 22.2949C62.7546 21.8483 63.1693 21.2695 63.5156 20.5586C63.862 19.8477 64.1081 19.0957 64.2539 18.3027C64.3268 17.9382 64.377 17.5736 64.4043 17.209C64.4408 16.8353 64.459 16.4342 64.459 16.0059C64.459 15.3587 64.2858 14.8255 63.9395 14.4062C63.6022 13.9779 63.1374 13.7637 62.5449 13.7637C62.1439 13.7637 61.7611 13.8958 61.3965 14.1602C61.041 14.4154 60.7129 14.7708 60.4121 15.2266C60.1113 15.6732 59.847 16.1882 59.6191 16.7715C59.4004 17.3457 59.2318 17.9564 59.1133 18.6035C58.9948 19.2507 58.9355 19.8978 58.9355 20.5449C58.9355 21.3379 59.0905 21.9395 59.4004 22.3496C59.7103 22.7507 60.1432 22.9512 60.6992 22.9512ZM70.6934 26L73.9336 10.7148H77.0781L76.791 13.5449H76.9414C77.3516 12.8978 77.7982 12.3418 78.2812 11.877C78.7643 11.4121 79.2884 11.0566 79.8535 10.8105C80.4186 10.5553 81.0339 10.4277 81.6992 10.4277C81.918 10.4277 82.1504 10.4414 82.3965 10.4688C82.6517 10.4961 82.8568 10.5326 83.0117 10.5781L82.1094 14.543C81.9635 14.4883 81.7676 14.4382 81.5215 14.3926C81.2845 14.347 81.0247 14.3242 80.7422 14.3242C80.2318 14.3242 79.7441 14.429 79.2793 14.6387C78.8145 14.8392 78.3861 15.14 77.9941 15.541C77.6022 15.9421 77.2559 16.4479 76.9551 17.0586C76.6634 17.6602 76.431 18.362 76.2578 19.1641L74.8086 26H70.6934ZM85.2539 26L83.3672 10.7148H87.4004L88.0156 18.7266C88.0339 18.9544 88.0475 19.2552 88.0566 19.6289C88.0749 19.9935 88.0885 20.3763 88.0977 20.7773C88.1068 21.1784 88.1113 21.5475 88.1113 21.8848H88.248C88.3574 21.5749 88.4805 21.2285 88.6172 20.8457C88.763 20.4538 88.9089 20.0801 89.0547 19.7246C89.2005 19.36 89.3327 19.0638 89.4512 18.8359L93.5117 10.7148H97.9277L89.6699 26H85.2539ZM96.834 26L100.074 10.7148H104.189L100.949 26H96.834ZM102.795 8.81445C102.212 8.81445 101.719 8.68685 101.318 8.43164C100.926 8.17643 100.73 7.74349 100.73 7.13281C100.73 6.60417 100.826 6.16211 101.018 5.80664C101.218 5.45117 101.505 5.18229 101.879 5C102.253 4.81771 102.699 4.72656 103.219 4.72656C103.766 4.72656 104.24 4.84505 104.641 5.08203C105.051 5.31901 105.256 5.7474 105.256 6.36719C105.256 7.09635 105.055 7.6888 104.654 8.14453C104.253 8.59115 103.633 8.81445 102.795 8.81445ZM111.559 26.2734C110.501 26.2734 109.54 26.0866 108.674 25.7129C107.817 25.3301 107.133 24.7285 106.623 23.9082C106.122 23.0788 105.871 21.9941 105.871 20.6543C105.871 19.5514 105.985 18.4941 106.213 17.4824C106.441 16.4707 106.778 15.5365 107.225 14.6797C107.671 13.8229 108.223 13.0801 108.879 12.4512C109.535 11.8132 110.287 11.3164 111.135 10.9609C111.982 10.6055 112.926 10.4277 113.965 10.4277C114.876 10.4277 115.692 10.5143 116.412 10.6875C117.141 10.8607 117.82 11.1022 118.449 11.4121L117.191 14.543C116.699 14.3333 116.216 14.151 115.742 13.9961C115.268 13.8411 114.73 13.7637 114.129 13.7637C113.482 13.7637 112.903 13.9505 112.393 14.3242C111.891 14.6979 111.463 15.1992 111.107 15.8281C110.761 16.457 110.497 17.1634 110.314 17.9473C110.132 18.722 110.041 19.5104 110.041 20.3125C110.041 20.8867 110.132 21.3698 110.314 21.7617C110.506 22.1536 110.775 22.4499 111.121 22.6504C111.477 22.8509 111.9 22.9512 112.393 22.9512C113.085 22.9512 113.728 22.8464 114.32 22.6367C114.913 22.418 115.523 22.1491 116.152 21.8301V25.1934C115.514 25.5306 114.826 25.7949 114.088 25.9863C113.35 26.1777 112.507 26.2734 111.559 26.2734ZM125.449 26.2734C124.255 26.2734 123.202 26.0592 122.291 25.6309C121.389 25.1934 120.682 24.5371 120.172 23.6621C119.661 22.7871 119.406 21.6888 119.406 20.3672C119.406 19.0911 119.589 17.8607 119.953 16.6758C120.318 15.4818 120.86 14.4154 121.58 13.4766C122.309 12.5378 123.202 11.7949 124.26 11.248C125.326 10.7012 126.557 10.4277 127.951 10.4277C129.665 10.4277 130.945 10.8197 131.793 11.6035C132.65 12.3783 133.078 13.3763 133.078 14.5977C133.078 15.3997 132.896 16.1289 132.531 16.7852C132.176 17.4414 131.633 18.0065 130.904 18.4805C130.175 18.9453 129.259 19.3053 128.156 19.5605C127.053 19.8066 125.759 19.9297 124.273 19.9297H123.576C123.567 20.0391 123.558 20.1348 123.549 20.2168C123.549 20.2988 123.549 20.39 123.549 20.4902C123.549 21.3105 123.786 21.9622 124.26 22.4453C124.734 22.9284 125.404 23.1699 126.27 23.1699C127.072 23.1699 127.801 23.0788 128.457 22.8965C129.113 22.7142 129.888 22.4134 130.781 21.9941V25.0977C129.979 25.4896 129.163 25.7858 128.334 25.9863C127.505 26.1777 126.543 26.2734 125.449 26.2734ZM124.027 17.1543H124.643C125.7 17.1543 126.557 17.0404 127.213 16.8125C127.878 16.5846 128.361 16.2839 128.662 15.9102C128.972 15.5365 129.127 15.1309 129.127 14.6934C129.127 14.2559 128.999 13.9323 128.744 13.7227C128.498 13.5039 128.147 13.3945 127.691 13.3945C127.181 13.3945 126.675 13.554 126.174 13.873C125.673 14.1921 125.23 14.6341 124.848 15.1992C124.465 15.7643 124.191 16.416 124.027 17.1543ZM138.684 26.2734C137.708 26.2734 136.856 26.2051 136.127 26.0684C135.407 25.9316 134.732 25.7038 134.104 25.3848V21.9941C134.787 22.3861 135.489 22.6914 136.209 22.9102C136.938 23.1198 137.69 23.2246 138.465 23.2246C138.893 23.2246 139.294 23.1654 139.668 23.0469C140.051 22.9284 140.361 22.7461 140.598 22.5C140.835 22.2539 140.953 21.944 140.953 21.5703C140.953 21.3151 140.894 21.0872 140.775 20.8867C140.657 20.6862 140.429 20.4674 140.092 20.2305C139.764 19.9844 139.285 19.6882 138.656 19.3418C138.027 18.9863 137.49 18.6217 137.043 18.248C136.605 17.8743 136.268 17.4505 136.031 16.9766C135.803 16.5026 135.689 15.9466 135.689 15.3086C135.689 14.2513 135.922 13.3626 136.387 12.6426C136.852 11.9134 137.517 11.362 138.383 10.9883C139.258 10.6146 140.301 10.4277 141.514 10.4277C142.398 10.4277 143.25 10.528 144.07 10.7285C144.891 10.929 145.693 11.2617 146.477 11.7266L145.123 14.666C144.585 14.3379 144.011 14.0645 143.4 13.8457C142.799 13.627 142.197 13.5176 141.596 13.5176C141.149 13.5176 140.748 13.6224 140.393 13.832C140.037 14.0417 139.859 14.3652 139.859 14.8027C139.859 15.0397 139.923 15.2585 140.051 15.459C140.178 15.6504 140.393 15.8464 140.693 16.0469C141.003 16.2474 141.418 16.4844 141.938 16.7578C142.557 17.0768 143.104 17.4323 143.578 17.8242C144.061 18.207 144.439 18.6536 144.713 19.1641C144.986 19.6654 145.123 20.2624 145.123 20.9551C145.123 22.1217 144.859 23.1016 144.33 23.8945C143.801 24.6784 143.054 25.2708 142.088 25.6719C141.131 26.0729 139.996 26.2734 138.684 26.2734Z" fill="white"/>
</svg>
