<svg width="200" height="200" viewBox="0 0 200 200" fill="none" xmlns="http://www.w3.org/2000/svg">
<rect width="200" height="200" fill="#3C284A"/>
<circle cx="40" cy="100" r="13.5" stroke="#DE3450" stroke-width="3"/>
<rect x="21" y="90" width="8" height="3" fill="#DE3450"/>
<rect x="26" y="85" width="13" height="3" fill="#DE3450"/>
<rect x="21" y="112" width="19" height="3" fill="#DE3450"/>
<rect x="24" y="108" width="7" height="3" fill="#DE3450"/>
<circle cx="40" cy="100" r="8" stroke="#DE3450" stroke-width="2"/>
<circle cx="40" cy="100" r="3" stroke="#DE3450" stroke-width="2"/>
<line x1="34.9393" y1="105.939" x2="38.9393" y2="101.939" stroke="#DE3450" stroke-width="3"/>
<line x1="46.063" y1="106.171" x2="41.063" y2="102.171" stroke="#DE3450" stroke-width="3"/>
<line x1="47.8287" y1="97.4095" x2="42.513" y2="99.3443" stroke="#DE3450" stroke-width="3"/>
<line x1="36.9049" y1="99.1874" x2="31.5325" y2="97.4253" stroke="#DE3450" stroke-width="3"/>
<line x1="40" y1="97" x2="40" y2="93" stroke="#DE3450" stroke-width="2"/>
<path d="M67.918 111.273C66.8607 111.273 65.8991 111.087 65.0332 110.713C64.1764 110.33 63.4928 109.729 62.9824 108.908C62.4811 108.079 62.2305 106.994 62.2305 105.654C62.2305 104.551 62.3444 103.494 62.5723 102.482C62.8001 101.471 63.1374 100.536 63.584 99.6797C64.0306 98.8229 64.582 98.0801 65.2383 97.4512C65.8945 96.8132 66.6465 96.3164 67.4941 95.9609C68.3418 95.6055 69.2852 95.4277 70.3242 95.4277C71.2357 95.4277 72.0514 95.5143 72.7715 95.6875C73.5007 95.8607 74.1797 96.1022 74.8086 96.4121L73.5508 99.543C73.0586 99.3333 72.5755 99.151 72.1016 98.9961C71.6276 98.8411 71.0898 98.7637 70.4883 98.7637C69.8411 98.7637 69.2624 98.9505 68.752 99.3242C68.2507 99.6979 67.8223 100.199 67.4668 100.828C67.1204 101.457 66.8561 102.163 66.6738 102.947C66.4915 103.722 66.4004 104.51 66.4004 105.312C66.4004 105.887 66.4915 106.37 66.6738 106.762C66.8652 107.154 67.1341 107.45 67.4805 107.65C67.8359 107.851 68.2598 107.951 68.752 107.951C69.4447 107.951 70.0872 107.846 70.6797 107.637C71.2721 107.418 71.8828 107.149 72.5117 106.83V110.193C71.8737 110.531 71.1855 110.795 70.4473 110.986C69.709 111.178 68.8659 111.273 67.918 111.273ZM80.0859 111.273C79.3477 111.273 78.6504 111.091 77.9941 110.727C77.3379 110.362 76.8001 109.774 76.3809 108.963C75.9707 108.152 75.7656 107.076 75.7656 105.736C75.7656 104.734 75.8704 103.74 76.0801 102.756C76.2988 101.771 76.6087 100.842 77.0098 99.9668C77.4199 99.0827 77.9121 98.3034 78.4863 97.6289C79.0697 96.9453 79.7259 96.4076 80.4551 96.0156C81.1934 95.6237 81.9909 95.4277 82.8477 95.4277C83.4948 95.4277 84.0599 95.5234 84.543 95.7148C85.026 95.8971 85.4408 96.1569 85.7871 96.4941C86.1335 96.8314 86.416 97.2233 86.6348 97.6699H86.7441L87.5234 95.7148H90.6953L87.4414 111H84.3652L84.5566 109.018H84.4473C84.0827 109.464 83.6862 109.856 83.2578 110.193C82.8294 110.531 82.3555 110.795 81.8359 110.986C81.3164 111.178 80.7331 111.273 80.0859 111.273ZM81.6992 107.951C82.2643 107.951 82.7884 107.732 83.2715 107.295C83.7546 106.848 84.1693 106.27 84.5156 105.559C84.862 104.848 85.1081 104.096 85.2539 103.303C85.3268 102.938 85.377 102.574 85.4043 102.209C85.4408 101.835 85.459 101.434 85.459 101.006C85.459 100.359 85.2858 99.8255 84.9395 99.4062C84.6022 98.9779 84.1374 98.7637 83.5449 98.7637C83.1439 98.7637 82.7611 98.8958 82.3965 99.1602C82.041 99.4154 81.7129 99.7708 81.4121 100.227C81.1113 100.673 80.847 101.188 80.6191 101.771C80.4004 102.346 80.2318 102.956 80.1133 103.604C79.9948 104.251 79.9355 104.898 79.9355 105.545C79.9355 106.338 80.0905 106.939 80.4004 107.35C80.7103 107.751 81.1432 107.951 81.6992 107.951ZM91.6934 111L94.9336 95.7148H98.0781L97.791 98.5449H97.9414C98.3516 97.8978 98.7982 97.3418 99.2812 96.877C99.7643 96.4121 100.288 96.0566 100.854 95.8105C101.419 95.5553 102.034 95.4277 102.699 95.4277C102.918 95.4277 103.15 95.4414 103.396 95.4688C103.652 95.4961 103.857 95.5326 104.012 95.5781L103.109 99.543C102.964 99.4883 102.768 99.4382 102.521 99.3926C102.285 99.347 102.025 99.3242 101.742 99.3242C101.232 99.3242 100.744 99.429 100.279 99.6387C99.8145 99.8392 99.3861 100.14 98.9941 100.541C98.6022 100.942 98.2559 101.448 97.9551 102.059C97.6634 102.66 97.431 103.362 97.2578 104.164L95.8086 111H91.6934ZM106.254 111L104.367 95.7148H108.4L109.016 103.727C109.034 103.954 109.048 104.255 109.057 104.629C109.075 104.993 109.089 105.376 109.098 105.777C109.107 106.178 109.111 106.548 109.111 106.885H109.248C109.357 106.575 109.48 106.229 109.617 105.846C109.763 105.454 109.909 105.08 110.055 104.725C110.201 104.36 110.333 104.064 110.451 103.836L114.512 95.7148H118.928L110.67 111H106.254ZM117.834 111L121.074 95.7148H125.189L121.949 111H117.834ZM123.795 93.8145C123.212 93.8145 122.719 93.6868 122.318 93.4316C121.926 93.1764 121.73 92.7435 121.73 92.1328C121.73 91.6042 121.826 91.1621 122.018 90.8066C122.218 90.4512 122.505 90.1823 122.879 90C123.253 89.8177 123.699 89.7266 124.219 89.7266C124.766 89.7266 125.24 89.8451 125.641 90.082C126.051 90.319 126.256 90.7474 126.256 91.3672C126.256 92.0964 126.055 92.6888 125.654 93.1445C125.253 93.5911 124.633 93.8145 123.795 93.8145ZM132.559 111.273C131.501 111.273 130.54 111.087 129.674 110.713C128.817 110.33 128.133 109.729 127.623 108.908C127.122 108.079 126.871 106.994 126.871 105.654C126.871 104.551 126.985 103.494 127.213 102.482C127.441 101.471 127.778 100.536 128.225 99.6797C128.671 98.8229 129.223 98.0801 129.879 97.4512C130.535 96.8132 131.287 96.3164 132.135 95.9609C132.982 95.6055 133.926 95.4277 134.965 95.4277C135.876 95.4277 136.692 95.5143 137.412 95.6875C138.141 95.8607 138.82 96.1022 139.449 96.4121L138.191 99.543C137.699 99.3333 137.216 99.151 136.742 98.9961C136.268 98.8411 135.73 98.7637 135.129 98.7637C134.482 98.7637 133.903 98.9505 133.393 99.3242C132.891 99.6979 132.463 100.199 132.107 100.828C131.761 101.457 131.497 102.163 131.314 102.947C131.132 103.722 131.041 104.51 131.041 105.312C131.041 105.887 131.132 106.37 131.314 106.762C131.506 107.154 131.775 107.45 132.121 107.65C132.477 107.851 132.9 107.951 133.393 107.951C134.085 107.951 134.728 107.846 135.32 107.637C135.913 107.418 136.523 107.149 137.152 106.83V110.193C136.514 110.531 135.826 110.795 135.088 110.986C134.35 111.178 133.507 111.273 132.559 111.273ZM146.449 111.273C145.255 111.273 144.202 111.059 143.291 110.631C142.389 110.193 141.682 109.537 141.172 108.662C140.661 107.787 140.406 106.689 140.406 105.367C140.406 104.091 140.589 102.861 140.953 101.676C141.318 100.482 141.86 99.4154 142.58 98.4766C143.309 97.5378 144.202 96.7949 145.26 96.248C146.326 95.7012 147.557 95.4277 148.951 95.4277C150.665 95.4277 151.945 95.8197 152.793 96.6035C153.65 97.3783 154.078 98.3763 154.078 99.5977C154.078 100.4 153.896 101.129 153.531 101.785C153.176 102.441 152.633 103.007 151.904 103.48C151.175 103.945 150.259 104.305 149.156 104.561C148.053 104.807 146.759 104.93 145.273 104.93H144.576C144.567 105.039 144.558 105.135 144.549 105.217C144.549 105.299 144.549 105.39 144.549 105.49C144.549 106.311 144.786 106.962 145.26 107.445C145.734 107.928 146.404 108.17 147.27 108.17C148.072 108.17 148.801 108.079 149.457 107.896C150.113 107.714 150.888 107.413 151.781 106.994V110.098C150.979 110.49 150.163 110.786 149.334 110.986C148.505 111.178 147.543 111.273 146.449 111.273ZM145.027 102.154H145.643C146.7 102.154 147.557 102.04 148.213 101.812C148.878 101.585 149.361 101.284 149.662 100.91C149.972 100.536 150.127 100.131 150.127 99.6934C150.127 99.2559 149.999 98.9323 149.744 98.7227C149.498 98.5039 149.147 98.3945 148.691 98.3945C148.181 98.3945 147.675 98.554 147.174 98.873C146.673 99.1921 146.23 99.6341 145.848 100.199C145.465 100.764 145.191 101.416 145.027 102.154ZM159.684 111.273C158.708 111.273 157.856 111.205 157.127 111.068C156.407 110.932 155.732 110.704 155.104 110.385V106.994C155.787 107.386 156.489 107.691 157.209 107.91C157.938 108.12 158.69 108.225 159.465 108.225C159.893 108.225 160.294 108.165 160.668 108.047C161.051 107.928 161.361 107.746 161.598 107.5C161.835 107.254 161.953 106.944 161.953 106.57C161.953 106.315 161.894 106.087 161.775 105.887C161.657 105.686 161.429 105.467 161.092 105.23C160.764 104.984 160.285 104.688 159.656 104.342C159.027 103.986 158.49 103.622 158.043 103.248C157.605 102.874 157.268 102.451 157.031 101.977C156.803 101.503 156.689 100.947 156.689 100.309C156.689 99.2513 156.922 98.3626 157.387 97.6426C157.852 96.9134 158.517 96.362 159.383 95.9883C160.258 95.6146 161.301 95.4277 162.514 95.4277C163.398 95.4277 164.25 95.528 165.07 95.7285C165.891 95.929 166.693 96.2617 167.477 96.7266L166.123 99.666C165.585 99.3379 165.011 99.0645 164.4 98.8457C163.799 98.627 163.197 98.5176 162.596 98.5176C162.149 98.5176 161.748 98.6224 161.393 98.832C161.037 99.0417 160.859 99.3652 160.859 99.8027C160.859 100.04 160.923 100.258 161.051 100.459C161.178 100.65 161.393 100.846 161.693 101.047C162.003 101.247 162.418 101.484 162.938 101.758C163.557 102.077 164.104 102.432 164.578 102.824C165.061 103.207 165.439 103.654 165.713 104.164C165.986 104.665 166.123 105.262 166.123 105.955C166.123 107.122 165.859 108.102 165.33 108.895C164.801 109.678 164.054 110.271 163.088 110.672C162.131 111.073 160.996 111.273 159.684 111.273Z" fill="white"/>
</svg>
